<svg width="114" height="23" viewBox="0 0 114 23" fill="none" xmlns="http://www.w3.org/2000/svg">
<path d="M6.88379 21.8428H6.77148C6.72656 21.8428 6.61426 21.8652 6.43457 21.9102C6.26986 21.9401 6.15007 21.9701 6.0752 22H0.886719C0.856771 21.9551 0.819336 21.9027 0.774414 21.8428C0.68457 21.723 0.632161 21.6406 0.617188 21.5957V21.4609C0.617188 21.2663 0.692057 21.1165 0.841797 21.0117C1.00651 20.9069 1.19368 20.832 1.40332 20.7871C1.61296 20.7422 1.83008 20.7122 2.05469 20.6973C2.2793 20.6823 2.4515 20.6523 2.57129 20.6074C2.67611 20.5475 2.7959 20.4652 2.93066 20.3604C3.0804 20.2406 3.18522 20.1357 3.24512 20.0459C3.26009 20.001 3.27507 19.9186 3.29004 19.7988C3.31999 19.6641 3.34245 19.5293 3.35742 19.3945C3.3724 19.2598 3.37988 19.1325 3.37988 19.0127C3.39486 18.8929 3.40234 18.8105 3.40234 18.7656C3.43229 18.4661 3.49219 18.1667 3.58203 17.8672C3.67188 17.5527 3.7168 17.2458 3.7168 16.9463V14.2734C3.7168 14.2585 3.72428 14.2135 3.73926 14.1387C3.75423 14.0638 3.76172 13.9889 3.76172 13.9141C3.77669 13.8392 3.79167 13.7718 3.80664 13.7119C3.82161 13.637 3.8291 13.5921 3.8291 13.5771V13.4648V13.4424C3.8291 13.3675 3.81413 13.2402 3.78418 13.0605C3.75423 12.8809 3.73177 12.7536 3.7168 12.6787L3.62695 7.35547L3.60449 6.95117V3.4248C3.60449 3.39486 3.55957 3.3125 3.46973 3.17773C3.37988 3.04297 3.30501 2.93815 3.24512 2.86328C3.12533 2.68359 2.92318 2.54883 2.63867 2.45898C2.35417 2.35417 2.06217 2.26432 1.7627 2.18945C1.46322 2.11458 1.19368 2.02474 0.954102 1.91992C0.729492 1.8151 0.617188 1.66536 0.617188 1.4707C0.617188 1.33594 0.654622 1.23112 0.729492 1.15625C0.819336 1.08138 0.916667 1.02897 1.02148 0.999023C1.14128 0.954102 1.26855 0.931641 1.40332 0.931641C1.53809 0.916667 1.65039 0.90918 1.74023 0.90918H2.00977C2.06966 0.90918 2.18945 0.916667 2.36914 0.931641C2.54883 0.931641 2.72852 0.939128 2.9082 0.954102C3.10286 0.969076 3.28255 0.984049 3.44727 0.999023C3.62695 0.999023 3.75423 1.00651 3.8291 1.02148L3.96387 1.17871H4.07617H4.12109C4.15104 1.14876 4.21842 1.11882 4.32324 1.08887C4.44303 1.04395 4.5179 1.02148 4.54785 1.02148H7.2207C7.2806 1.02148 7.40039 1.014 7.58008 0.999023C7.75977 0.969076 7.86458 0.939128 7.89453 0.90918H14.1162C14.1462 0.939128 14.2135 0.969076 14.3184 0.999023C14.4232 1.014 14.498 1.02148 14.543 1.02148H16.0928C16.3923 1.05143 16.6243 1.15625 16.7891 1.33594C16.9538 1.51562 17.096 1.74772 17.2158 2.03223V3.69434C17.2158 3.72428 17.2383 3.82161 17.2832 3.98633C17.3431 4.15104 17.373 4.24089 17.373 4.25586V4.45801C17.373 4.5179 17.3581 4.63021 17.3281 4.79492C17.3132 4.95964 17.2832 5.13184 17.2383 5.31152C17.1934 5.47624 17.1335 5.62598 17.0586 5.76074C16.9987 5.89551 16.9238 5.96289 16.834 5.96289H16.8115C16.557 5.76823 16.3623 5.58854 16.2275 5.42383C16.0928 5.25911 15.958 5.06445 15.8232 4.83984C15.7933 4.77995 15.7409 4.68262 15.666 4.54785C15.6061 4.41309 15.5537 4.31576 15.5088 4.25586C15.4339 4.0612 15.3216 3.85156 15.1719 3.62695C15.0221 3.38737 14.8499 3.17025 14.6553 2.97559C14.4606 2.78092 14.2435 2.6237 14.0039 2.50391C13.7643 2.36914 13.5247 2.30176 13.2852 2.30176H8.45605C8.38118 2.22689 8.3138 2.18197 8.25391 2.16699C8.20898 2.15202 8.1416 2.14453 8.05176 2.14453H7.89453C7.83464 2.17448 7.72982 2.22689 7.58008 2.30176C7.44531 2.36165 7.36296 2.41406 7.33301 2.45898C7.31803 2.45898 7.30306 2.49642 7.28809 2.57129C7.28809 2.63118 7.2806 2.70605 7.26562 2.7959C7.26562 2.87077 7.25814 2.94564 7.24316 3.02051C7.24316 3.0804 7.23568 3.11784 7.2207 3.13281C7.2207 3.16276 7.19824 3.21517 7.15332 3.29004C7.12337 3.34993 7.09342 3.39486 7.06348 3.4248C7.06348 3.57454 7.05599 3.8291 7.04102 4.18848C7.02604 4.54785 7.01107 4.92969 6.99609 5.33398C6.98112 5.72331 6.96615 6.09766 6.95117 6.45703C6.9362 6.81641 6.92122 7.06348 6.90625 7.19824V7.69238V8.0293C6.92122 8.11914 6.9362 8.26139 6.95117 8.45605C6.96615 8.65072 6.98112 8.85286 6.99609 9.0625C7.01107 9.27214 7.02604 9.4668 7.04102 9.64648C7.05599 9.82617 7.06348 9.95345 7.06348 10.0283C7.12337 10.0732 7.2207 10.1257 7.35547 10.1855C7.49023 10.2305 7.625 10.2754 7.75977 10.3203C7.90951 10.3652 8.05176 10.4027 8.18652 10.4326C8.32129 10.4476 8.42611 10.4551 8.50098 10.4551H8.77051C9.14486 10.4251 9.51921 10.4027 9.89355 10.3877C10.2829 10.3727 10.6348 10.3128 10.9492 10.208C11.2786 10.1032 11.5632 9.93099 11.8027 9.69141C12.0573 9.45182 12.2295 9.09245 12.3193 8.61328C12.3193 8.56836 12.3268 8.47852 12.3418 8.34375C12.3568 8.20898 12.3717 8.06673 12.3867 7.91699C12.4017 7.76725 12.4167 7.625 12.4316 7.49023C12.4466 7.35547 12.4541 7.25814 12.4541 7.19824C12.514 7.07845 12.6413 6.95866 12.8359 6.83887C13.0306 6.7041 13.1953 6.63672 13.3301 6.63672C13.5547 6.63672 13.7194 6.72656 13.8242 6.90625C13.929 7.07096 13.9814 7.25065 13.9814 7.44531C13.9814 7.61003 13.974 7.75977 13.959 7.89453C13.959 8.0293 13.929 8.17904 13.8691 8.34375V12.8359C13.929 12.9557 13.959 13.0755 13.959 13.1953C13.974 13.3151 13.9814 13.4349 13.9814 13.5547V14.1611V14.5654C13.9814 14.79 13.9365 14.9847 13.8467 15.1494C13.7718 15.3141 13.5846 15.3965 13.2852 15.3965C13.0456 15.3965 12.8584 15.3141 12.7236 15.1494C12.5889 14.9697 12.484 14.7451 12.4092 14.4756C12.3343 14.2061 12.2744 13.9215 12.2295 13.6221C12.1846 13.3226 12.1247 13.0381 12.0498 12.7686C11.9899 12.499 11.9001 12.2819 11.7803 12.1172C11.6755 11.9375 11.5107 11.8477 11.2861 11.8477H11.0391C11.0091 11.8626 10.9268 11.8776 10.792 11.8926C10.6722 11.9076 10.5374 11.9225 10.3877 11.9375C10.238 11.9525 10.1032 11.9674 9.9834 11.9824C9.86361 11.9974 9.79622 12.0049 9.78125 12.0049H9.33203H8.20898C7.92448 12.0648 7.69987 12.1771 7.53516 12.3418C7.37044 12.4915 7.24316 12.6787 7.15332 12.9033C7.06348 13.113 7.00358 13.3451 6.97363 13.5996C6.95866 13.8542 6.95117 14.1162 6.95117 14.3857V15.1719C6.95117 15.2617 6.94368 15.3516 6.92871 15.4414C6.91374 15.5312 6.90625 15.6136 6.90625 15.6885C6.90625 15.7184 6.88379 15.8083 6.83887 15.958C6.79395 16.1077 6.77148 16.1976 6.77148 16.2275V17.665V18.1143C6.77148 18.4587 6.78646 18.7806 6.81641 19.0801C6.84635 19.3796 6.92871 19.7015 7.06348 20.0459C7.42285 20.2555 7.76725 20.3678 8.09668 20.3828C8.44108 20.3978 8.80046 20.4202 9.1748 20.4502C9.2347 20.4502 9.36947 20.4652 9.5791 20.4951C9.78874 20.5251 10.0133 20.5625 10.2529 20.6074C10.4925 20.6523 10.7171 20.6898 10.9268 20.7197C11.1364 20.7497 11.2712 20.7646 11.3311 20.7646H12.5664C12.5664 20.7796 12.6038 20.8245 12.6787 20.8994C12.7686 20.9593 12.8359 20.9967 12.8809 21.0117H12.9258H12.9932C13.0381 20.9967 13.083 20.9743 13.1279 20.9443C13.1579 20.9294 13.1878 20.9144 13.2178 20.8994C13.2477 20.8844 13.2702 20.877 13.2852 20.877C13.3151 20.877 13.36 20.9219 13.4199 21.0117C13.4798 21.0866 13.5247 21.139 13.5547 21.1689H13.6221H13.7119C13.7119 21.139 13.7269 21.0866 13.7568 21.0117C13.7868 20.9219 13.8242 20.877 13.8691 20.877H13.9814C14.8799 20.3529 15.6361 19.7015 16.25 18.9229C16.8639 18.1442 17.4629 17.3431 18.0469 16.5195L18.1143 16.4971C18.1292 16.4971 18.1367 16.5046 18.1367 16.5195C18.1517 16.5195 18.1667 16.5195 18.1816 16.5195H18.2041C18.2191 16.5195 18.2565 16.557 18.3164 16.6318C18.3913 16.7067 18.4362 16.7591 18.4512 16.7891V17.2832V17.7773C18.4512 17.8672 18.4362 18.0319 18.4062 18.2715C18.3763 18.5111 18.3464 18.7656 18.3164 19.0352C18.3014 19.3047 18.279 19.5592 18.249 19.7988C18.2191 20.0384 18.2041 20.2031 18.2041 20.293C18.1143 20.4128 18.0544 20.54 18.0244 20.6748C18.0094 20.8096 17.987 20.9443 17.957 21.0791C17.9421 21.1989 17.9121 21.3187 17.8672 21.4385C17.8372 21.5433 17.7624 21.6406 17.6426 21.7305C17.5527 21.7305 17.3805 21.738 17.126 21.7529C16.8864 21.7529 16.6318 21.7604 16.3623 21.7754C16.0928 21.7904 15.8382 21.8053 15.5986 21.8203C15.359 21.8353 15.1943 21.8428 15.1045 21.8428C15.0895 21.8428 15.0371 21.8577 14.9473 21.8877C14.8724 21.9176 14.7826 21.9551 14.6777 22C14.5879 22.0449 14.498 22.0824 14.4082 22.1123C14.3333 22.1423 14.2884 22.1572 14.2734 22.1572C14.2435 22.1572 14.1462 22.1273 13.9814 22.0674C13.8167 22.0225 13.7269 22 13.7119 22H13.6221C13.2777 22 12.9258 22.0225 12.5664 22.0674C12.207 22.1273 11.8327 22.1572 11.4434 22.1572C10.6797 22.1572 9.91602 22.1048 9.15234 22C8.40365 21.8952 7.64746 21.8428 6.88379 21.8428ZM31.1641 21.9326L26.6719 22H26.2676C26.1628 22 25.9756 22 25.7061 22C25.4365 22.015 25.152 22.0225 24.8525 22.0225C24.5531 22.0225 24.2686 22.0225 23.999 22.0225C23.7295 22.0374 23.5423 22.0449 23.4375 22.0449C23.4076 22.0449 23.3402 22.0374 23.2354 22.0225C23.1455 22.0225 23.0407 22.015 22.9209 22C22.8011 21.985 22.6813 21.9701 22.5615 21.9551C22.4567 21.9401 22.3818 21.9326 22.3369 21.9326C22.2021 21.8877 22.0749 21.8128 21.9551 21.708C21.8353 21.6032 21.7754 21.4834 21.7754 21.3486C21.7754 21.0791 21.8727 20.9069 22.0674 20.832C22.262 20.7572 22.4792 20.6973 22.7188 20.6523C22.9733 20.6074 23.2204 20.5475 23.46 20.4727C23.7145 20.3828 23.8942 20.2031 23.999 19.9336C24.014 19.9036 24.0215 19.8288 24.0215 19.709C24.0215 19.5892 24.014 19.4694 23.999 19.3496C23.999 19.2148 23.999 19.1325 23.999 19.1025C24.014 18.9079 24.0365 18.571 24.0664 18.0918C24.1113 17.5977 24.1562 17.0736 24.2012 16.5195C24.2461 15.9655 24.2835 15.4414 24.3135 14.9473C24.3584 14.4531 24.3883 14.1012 24.4033 13.8916C24.4183 13.8766 24.4408 13.8317 24.4707 13.7568C24.5156 13.682 24.5531 13.5996 24.583 13.5098C24.613 13.4199 24.6354 13.3376 24.6504 13.2627C24.6803 13.1729 24.7028 13.1055 24.7178 13.0605V13.0156C24.7178 12.7611 24.6654 12.529 24.5605 12.3193C24.4557 12.1097 24.4033 11.8252 24.4033 11.4658C24.4033 10.3278 24.4557 9.21224 24.5605 8.11914C24.6654 7.02604 24.7178 5.91797 24.7178 4.79492C24.7178 4.3457 24.6429 4.0013 24.4932 3.76172C24.3584 3.52214 24.1787 3.34993 23.9541 3.24512C23.7295 3.12533 23.4899 3.05794 23.2354 3.04297C22.9958 3.01302 22.7637 2.98307 22.5391 2.95312C22.3145 2.92318 22.1273 2.87077 21.9775 2.7959C21.8428 2.70605 21.7754 2.55632 21.7754 2.34668C21.7754 2.15202 21.8278 1.97982 21.9326 1.83008C22.0524 1.66536 22.2096 1.58301 22.4043 1.58301H22.7412C22.7861 1.58301 22.9059 1.59049 23.1006 1.60547C23.3102 1.62044 23.5348 1.6429 23.7744 1.67285C24.014 1.68783 24.2386 1.7028 24.4482 1.71777C24.6579 1.73275 24.7926 1.74023 24.8525 1.74023H31.5684C31.7331 1.80013 31.8903 1.89746 32.04 2.03223C32.2048 2.15202 32.2871 2.29427 32.2871 2.45898C32.2871 2.54883 32.2721 2.63118 32.2422 2.70605C32.2272 2.78092 32.1823 2.88574 32.1074 3.02051C32.0625 3.03548 31.9876 3.05794 31.8828 3.08789C31.778 3.10286 31.6657 3.12533 31.5459 3.15527C31.4411 3.18522 31.3363 3.21517 31.2314 3.24512C31.1266 3.26009 31.0518 3.27507 31.0068 3.29004C30.9619 3.29004 30.8646 3.29753 30.7148 3.3125C30.5651 3.3125 30.4004 3.31999 30.2207 3.33496C30.056 3.34993 29.8988 3.36491 29.749 3.37988C29.5993 3.39486 29.502 3.40983 29.457 3.4248C29.3223 3.45475 29.2174 3.52962 29.1426 3.64941C29.0827 3.75423 29.0378 3.88151 29.0078 4.03125C28.9779 4.18099 28.9554 4.33073 28.9404 4.48047C28.9404 4.63021 28.9404 4.75 28.9404 4.83984C28.8805 5.31901 28.8281 5.76074 28.7832 6.16504C28.7533 6.56934 28.7383 6.98112 28.7383 7.40039C28.7383 7.59505 28.7458 7.78971 28.7607 7.98438C28.7757 8.16406 28.7832 8.3737 28.7832 8.61328C28.7083 8.68815 28.6559 8.75553 28.626 8.81543C28.611 8.87533 28.6035 8.95768 28.6035 9.0625C28.6035 9.1224 28.611 9.18229 28.626 9.24219C28.6559 9.30208 28.7083 9.37695 28.7832 9.4668V14.1836C28.7533 14.2585 28.7158 14.3857 28.6709 14.5654C28.641 14.7301 28.626 14.8424 28.626 14.9023C28.626 14.9772 28.6185 15.1419 28.6035 15.3965C28.5885 15.6361 28.5736 15.8981 28.5586 16.1826C28.5436 16.4521 28.5286 16.7067 28.5137 16.9463C28.4987 17.1859 28.4912 17.3356 28.4912 17.3955C28.4762 17.4255 28.4613 17.4928 28.4463 17.5977C28.4313 17.6875 28.4163 17.7923 28.4014 17.9121C28.4014 18.0169 28.3939 18.1217 28.3789 18.2266C28.3789 18.3164 28.3789 18.3763 28.3789 18.4062V18.4961V18.5186C28.3789 18.5785 28.3864 18.6833 28.4014 18.833C28.4313 18.9827 28.4613 19.14 28.4912 19.3047C28.5212 19.4694 28.5511 19.6266 28.5811 19.7764C28.611 19.9111 28.626 20.0085 28.626 20.0684C28.7008 20.2331 28.8206 20.3379 28.9854 20.3828C29.1501 20.4277 29.3073 20.4652 29.457 20.4951C29.5169 20.5101 29.6068 20.5326 29.7266 20.5625C29.8464 20.5775 29.9587 20.5924 30.0635 20.6074C30.1833 20.6224 30.2881 20.6374 30.3779 20.6523C30.4827 20.6523 30.5576 20.6523 30.6025 20.6523H33.9268C33.9867 20.6823 34.084 20.7197 34.2188 20.7646C34.3685 20.7946 34.5257 20.832 34.6904 20.877C34.8551 20.9219 35.0049 20.9593 35.1396 20.9893C35.2894 21.0192 35.3942 21.0417 35.4541 21.0566H35.6562H35.7686C35.7985 21.0566 35.8734 20.9818 35.9932 20.832C36.1279 20.6823 36.2253 20.57 36.2852 20.4951C36.375 20.4053 36.4948 20.278 36.6445 20.1133C36.8092 19.9486 36.9665 19.7839 37.1162 19.6191C37.266 19.4544 37.4007 19.3122 37.5205 19.1924C37.6403 19.0576 37.7077 18.9753 37.7227 18.9453C37.7526 18.9154 37.7975 18.8255 37.8574 18.6758C37.9173 18.526 37.9622 18.4362 37.9922 18.4062C38.0221 18.3763 38.0895 18.3089 38.1943 18.2041C38.3141 18.0843 38.389 18.002 38.4189 17.957C38.4489 17.9421 38.4938 17.8896 38.5537 17.7998C38.6136 17.71 38.6735 17.6126 38.7334 17.5078C38.7933 17.388 38.8457 17.2832 38.8906 17.1934C38.9355 17.0885 38.9655 17.0212 38.9805 16.9912C39.0104 16.9463 39.0628 16.8639 39.1377 16.7441C39.2275 16.6243 39.3174 16.4971 39.4072 16.3623C39.4971 16.2275 39.5794 16.1003 39.6543 15.9805C39.7292 15.8607 39.7816 15.7783 39.8115 15.7334C39.8415 15.7035 39.8789 15.6585 39.9238 15.5986C39.9837 15.5387 40.0436 15.4714 40.1035 15.3965C40.1634 15.3216 40.2158 15.2542 40.2607 15.1943C40.3206 15.1195 40.3581 15.0596 40.373 15.0146C40.4329 14.9847 40.5078 14.9173 40.5977 14.8125C40.7025 14.6927 40.7624 14.6253 40.7773 14.6104H40.8672C41.0319 14.6104 41.1367 14.7227 41.1816 14.9473C41.2266 15.1569 41.249 15.3665 41.249 15.5762V16.0029V16.5645C41.2191 16.6094 41.1816 16.7217 41.1367 16.9014C41.1068 17.0811 41.0618 17.2757 41.002 17.4854C40.957 17.695 40.9121 17.8896 40.8672 18.0693C40.8223 18.249 40.7923 18.3613 40.7773 18.4062C40.7773 18.4362 40.7699 18.5186 40.7549 18.6533C40.7549 18.7731 40.7474 18.9079 40.7324 19.0576C40.7174 19.1924 40.7025 19.3271 40.6875 19.4619C40.6875 19.5817 40.68 19.6491 40.665 19.6641C40.665 19.679 40.6501 19.724 40.6201 19.7988C40.5902 19.8587 40.5527 19.9336 40.5078 20.0234C40.4779 20.0983 40.4479 20.1732 40.418 20.248C40.388 20.3229 40.373 20.3678 40.373 20.3828V21.0566C40.3431 21.5059 40.1709 21.8278 39.8564 22.0225C39.557 22.2321 39.1976 22.3369 38.7783 22.3369H38.2842C38.2393 22.3369 38.1195 22.3294 37.9248 22.3145C37.7301 22.2995 37.5205 22.277 37.2959 22.2471C37.0713 22.2321 36.8542 22.2171 36.6445 22.2021C36.4499 22.1872 36.3301 22.1797 36.2852 22.1797H33.5C33.4251 22.1797 33.2979 22.1722 33.1182 22.1572C32.9385 22.1423 32.7438 22.1273 32.5342 22.1123C32.3245 22.0973 32.1224 22.0824 31.9277 22.0674C31.748 22.0524 31.6283 22.0449 31.5684 22.0449C31.5384 22.0449 31.471 22.0299 31.3662 22C31.2614 21.9701 31.194 21.9476 31.1641 21.9326ZM43.8994 12.0049C43.8994 11.7354 43.9294 11.391 43.9893 10.9717C44.0492 10.5524 44.1315 10.1257 44.2363 9.69141C44.3411 9.24219 44.4609 8.81543 44.5957 8.41113C44.7454 8.00684 44.8952 7.66992 45.0449 7.40039C45.2096 7.10091 45.3968 6.84635 45.6064 6.63672C45.8311 6.41211 46.0706 6.15007 46.3252 5.85059C46.4749 5.68587 46.5872 5.48372 46.6621 5.24414C46.737 5.00456 46.8493 4.80241 46.999 4.6377C47.0589 4.56283 47.1562 4.45801 47.291 4.32324C47.4408 4.1735 47.5456 4.07617 47.6055 4.03125C47.6354 4.01628 47.6953 3.99382 47.7852 3.96387C47.89 3.93392 47.9574 3.91895 47.9873 3.91895C48.3617 3.72428 48.6686 3.49219 48.9082 3.22266C49.1628 2.93815 49.4697 2.69108 49.8291 2.48145C50.458 2.13704 51.1543 1.91243 51.918 1.80762C52.6816 1.7028 53.4229 1.65039 54.1416 1.65039C54.3213 1.65039 54.486 1.71029 54.6357 1.83008C54.7855 1.9349 54.9577 2.01725 55.1523 2.07715C55.1823 2.09212 55.2497 2.1071 55.3545 2.12207C55.4593 2.13704 55.5716 2.15202 55.6914 2.16699C55.8262 2.16699 55.946 2.17448 56.0508 2.18945C56.1706 2.20443 56.2454 2.2194 56.2754 2.23438C56.3053 2.23438 56.3727 2.25684 56.4775 2.30176C56.5824 2.33171 56.6572 2.35417 56.7021 2.36914C56.7321 2.38411 56.7995 2.42155 56.9043 2.48145C57.0091 2.52637 57.1214 2.58626 57.2412 2.66113C57.361 2.72103 57.4733 2.78092 57.5781 2.84082C57.6979 2.90072 57.7803 2.93815 57.8252 2.95312C58.0199 3.02799 58.252 3.10286 58.5215 3.17773C58.806 3.23763 59.0381 3.33496 59.2178 3.46973C59.2477 3.4847 59.2926 3.52962 59.3525 3.60449C59.4274 3.67936 59.5023 3.76172 59.5771 3.85156C59.667 3.92643 59.7419 4.0013 59.8018 4.07617C59.8766 4.13607 59.9215 4.1735 59.9365 4.18848C59.9515 4.20345 59.9889 4.2334 60.0488 4.27832C60.1237 4.30827 60.1986 4.35319 60.2734 4.41309C60.3483 4.45801 60.4232 4.50293 60.498 4.54785C60.5729 4.59277 60.6253 4.62272 60.6553 4.6377C61.1045 4.99707 61.4863 5.44629 61.8008 5.98535C62.1302 6.52441 62.3923 7.1084 62.5869 7.7373C62.7965 8.35124 62.9463 8.98014 63.0361 9.62402C63.141 10.2529 63.1934 10.8444 63.1934 11.3984V12.0273C63.1634 12.1771 63.141 12.3867 63.126 12.6562C63.111 12.9108 63.096 13.1654 63.0811 13.4199C63.0661 13.6745 63.0511 13.8991 63.0361 14.0938C63.0361 14.2884 63.0361 14.3932 63.0361 14.4082C63.0212 14.4531 62.9837 14.5729 62.9238 14.7676C62.8789 14.9473 62.819 15.1494 62.7441 15.374C62.6693 15.5986 62.5869 15.8232 62.4971 16.0479C62.4222 16.2575 62.3623 16.4147 62.3174 16.5195C62.3024 16.5495 62.2725 16.6094 62.2275 16.6992C62.1976 16.7741 62.1602 16.8639 62.1152 16.9688C62.0703 17.0586 62.0254 17.1484 61.9805 17.2383C61.9355 17.3132 61.9131 17.3656 61.9131 17.3955C61.9131 17.4255 61.8831 17.4928 61.8232 17.5977C61.7783 17.7025 61.7559 17.7773 61.7559 17.8223C61.7109 17.8822 61.6211 17.9945 61.4863 18.1592C61.3516 18.3089 61.2093 18.4736 61.0596 18.6533C60.9098 18.833 60.7676 19.0052 60.6328 19.1699C60.498 19.3346 60.4082 19.4469 60.3633 19.5068C60.3184 19.5368 60.2435 19.5892 60.1387 19.6641C60.0339 19.7389 59.9665 19.7764 59.9365 19.7764C59.8916 19.8512 59.8317 19.8887 59.7568 19.8887C59.7119 19.9486 59.6221 20.0309 59.4873 20.1357C59.3675 20.2406 59.2402 20.3454 59.1055 20.4502C58.9707 20.555 58.8434 20.6523 58.7236 20.7422C58.6188 20.832 58.5589 20.8844 58.5439 20.8994C58.3792 21.0042 58.237 21.0641 58.1172 21.0791C58.0124 21.0791 57.8626 21.109 57.668 21.1689C57.653 21.1839 57.6156 21.2064 57.5557 21.2363C57.4958 21.2663 57.4359 21.2962 57.376 21.3262C57.3161 21.3561 57.2562 21.3861 57.1963 21.416C57.1514 21.431 57.1214 21.4385 57.1064 21.4385C57.0915 21.4385 57.0391 21.4535 56.9492 21.4834C56.8594 21.4984 56.7546 21.5133 56.6348 21.5283C56.5299 21.5433 56.4251 21.5658 56.3203 21.5957C56.2305 21.6107 56.1706 21.6182 56.1406 21.6182C56.0807 21.6182 55.9609 21.6556 55.7812 21.7305C55.6016 21.8053 55.4893 21.8577 55.4443 21.8877H54.1416H53.1533C52.8089 21.8877 52.472 21.8877 52.1426 21.8877C51.8132 21.8727 51.4987 21.8353 51.1992 21.7754C51.1842 21.7754 51.1468 21.7604 51.0869 21.7305C51.027 21.7005 50.9521 21.6631 50.8623 21.6182C50.7874 21.5732 50.7201 21.5358 50.6602 21.5059C50.6003 21.4609 50.5628 21.4385 50.5479 21.4385C50.5329 21.4385 50.488 21.4385 50.4131 21.4385C50.3382 21.4235 50.2559 21.4085 50.166 21.3936C50.0911 21.3786 50.0163 21.3636 49.9414 21.3486C49.8815 21.3337 49.8441 21.3262 49.8291 21.3262C49.7992 21.3262 49.7243 21.2812 49.6045 21.1914C49.4847 21.1016 49.4098 21.0566 49.3799 21.0566C49.3499 21.0267 49.2601 20.9818 49.1104 20.9219C48.9756 20.862 48.8783 20.8171 48.8184 20.7871C48.474 20.6224 48.1221 20.4128 47.7627 20.1582C47.4183 19.8887 47.0889 19.5892 46.7744 19.2598C46.4749 18.9303 46.1979 18.5859 45.9434 18.2266C45.6888 17.8672 45.4867 17.5003 45.3369 17.126C45.307 17.0661 45.2695 16.9388 45.2246 16.7441C45.1947 16.5495 45.1797 16.4372 45.1797 16.4072C45.1647 16.3923 45.1198 16.3249 45.0449 16.2051C44.9701 16.0703 44.9176 15.988 44.8877 15.958C44.7529 15.7035 44.6257 15.4115 44.5059 15.082C44.3861 14.7376 44.2812 14.3857 44.1914 14.0264C44.1016 13.667 44.0267 13.3151 43.9668 12.9707C43.9219 12.6113 43.8994 12.2894 43.8994 12.0049ZM47.9873 12.5664V13.8916C47.9873 14.0114 48.0173 14.1986 48.0771 14.4531C48.137 14.7077 48.2044 14.9772 48.2793 15.2617C48.3542 15.5312 48.429 15.7858 48.5039 16.0254C48.5788 16.265 48.6462 16.4297 48.7061 16.5195C48.721 16.5645 48.766 16.6543 48.8408 16.7891C48.9307 16.9089 49.0205 17.0436 49.1104 17.1934C49.2152 17.3281 49.305 17.4629 49.3799 17.5977C49.4697 17.7174 49.5221 17.7923 49.5371 17.8223C49.5521 17.8522 49.582 17.9271 49.627 18.0469C49.6868 18.1517 49.7467 18.264 49.8066 18.3838C49.8665 18.5036 49.9189 18.6234 49.9639 18.7432C50.0238 18.848 50.0687 18.9154 50.0986 18.9453C50.0986 18.9603 50.1286 18.9977 50.1885 19.0576C50.2484 19.1175 50.3083 19.1774 50.3682 19.2373C50.443 19.2972 50.5029 19.3571 50.5479 19.417C50.6077 19.4619 50.6452 19.4919 50.6602 19.5068C50.7799 19.6416 50.9147 19.8363 51.0645 20.0908C51.2142 20.3304 51.3714 20.5026 51.5361 20.6074C51.5511 20.6374 51.6335 20.6748 51.7832 20.7197C51.9479 20.7497 52.0527 20.7721 52.0977 20.7871C52.3971 20.9069 52.6816 21.0042 52.9512 21.0791C53.2357 21.139 53.5501 21.1689 53.8945 21.1689C54.1641 21.1689 54.3887 21.139 54.5684 21.0791C54.763 21.0042 54.9352 20.9069 55.085 20.7871C55.2497 20.6673 55.4069 20.5326 55.5566 20.3828C55.7214 20.2181 55.916 20.0534 56.1406 19.8887C56.3652 19.724 56.5225 19.5368 56.6123 19.3271C56.7171 19.1025 56.8444 18.8854 56.9941 18.6758C57.1289 18.4512 57.2786 18.234 57.4434 18.0244C57.623 17.8148 57.7878 17.6051 57.9375 17.3955C57.9974 17.3057 58.0348 17.2308 58.0498 17.1709C58.0798 17.111 58.0947 17.0586 58.0947 17.0137C58.1097 16.9538 58.1172 16.8864 58.1172 16.8115C58.1322 16.7367 58.1621 16.6393 58.207 16.5195C58.222 16.5195 58.252 16.4746 58.2969 16.3848C58.3568 16.2799 58.4167 16.1602 58.4766 16.0254C58.5365 15.8906 58.5964 15.7559 58.6562 15.6211C58.7161 15.4863 58.7686 15.374 58.8135 15.2842C58.8285 15.2542 58.8434 15.2168 58.8584 15.1719C58.8734 15.1419 58.8883 15.112 58.9033 15.082C58.9183 15.0521 58.9258 15.0296 58.9258 15.0146C58.9557 14.9248 58.9857 14.79 59.0156 14.6104C59.0456 14.4307 59.0755 14.251 59.1055 14.0713C59.1354 13.8916 59.1579 13.7344 59.1729 13.5996C59.2028 13.4499 59.2178 13.36 59.2178 13.3301V11.8477C59.2178 11.069 59.1803 10.2754 59.1055 9.4668C59.0306 8.6582 58.8434 7.87956 58.5439 7.13086C58.2894 6.56185 58.0199 6.03027 57.7354 5.53613C57.4658 5.02702 57.069 4.5778 56.5449 4.18848C56.515 4.1735 56.4176 4.12858 56.2529 4.05371C56.0882 3.96387 55.9085 3.87402 55.7139 3.78418C55.5342 3.67936 55.362 3.58952 55.1973 3.51465C55.0326 3.4248 54.9277 3.3724 54.8828 3.35742C54.8678 3.34245 54.8229 3.3125 54.748 3.26758C54.6882 3.22266 54.6133 3.17773 54.5234 3.13281C54.4486 3.08789 54.3737 3.05046 54.2988 3.02051C54.224 2.97559 54.179 2.95312 54.1641 2.95312C54.1641 2.92318 54.1191 2.9082 54.0293 2.9082C53.9544 2.9082 53.902 2.9082 53.8721 2.9082C53.2881 2.9082 52.749 3.03548 52.2549 3.29004C51.7757 3.52962 51.3415 3.84408 50.9521 4.2334C50.5628 4.62272 50.2109 5.06445 49.8965 5.55859C49.597 6.03776 49.335 6.52441 49.1104 7.01855C48.721 7.87207 48.4365 8.77799 48.2568 9.73633C48.0771 10.6797 47.9873 11.623 47.9873 12.5664ZM64.3838 21.3486C64.3838 21.0791 64.4512 20.877 64.5859 20.7422C64.7207 20.6074 64.8779 20.5026 65.0576 20.4277C65.2523 20.3379 65.4544 20.2705 65.6641 20.2256C65.8737 20.1657 66.0609 20.0758 66.2256 19.9561C66.2855 19.9261 66.3678 19.8737 66.4727 19.7988C66.5924 19.709 66.7122 19.6191 66.832 19.5293C66.9518 19.4395 67.0566 19.3646 67.1465 19.3047C67.2363 19.2298 67.2812 19.1849 67.2812 19.1699C67.3262 19.14 67.3786 19.0726 67.4385 18.9678C67.5133 18.863 67.5658 18.7956 67.5957 18.7656C67.5957 18.7357 67.6182 18.6758 67.6631 18.5859C67.708 18.4961 67.7529 18.4062 67.7979 18.3164C67.8428 18.2266 67.8877 18.1442 67.9326 18.0693C67.9775 17.9795 68 17.9196 68 17.8896C68.1198 17.7249 68.2471 17.5602 68.3818 17.3955C68.5166 17.2308 68.6289 17.0661 68.7188 16.9014C68.9883 16.3923 69.2054 15.8607 69.3701 15.3066C69.5348 14.7526 69.7445 14.2135 69.999 13.6895C70.014 13.6595 70.0514 13.5771 70.1113 13.4424C70.1712 13.2926 70.2386 13.1429 70.3135 12.9932C70.4033 12.8285 70.4782 12.6787 70.5381 12.5439C70.613 12.4092 70.6654 12.3268 70.6953 12.2969C70.6953 12.2819 70.7028 12.2445 70.7178 12.1846C70.7327 12.1097 70.7477 12.0348 70.7627 11.96C70.7777 11.8701 70.7926 11.7952 70.8076 11.7354C70.8226 11.6605 70.8301 11.6081 70.8301 11.5781C70.8301 11.5482 70.8451 11.4958 70.875 11.4209C70.9199 11.3311 70.9648 11.2412 71.0098 11.1514C71.0697 11.0615 71.1221 10.9792 71.167 10.9043C71.2119 10.8145 71.2419 10.7546 71.2568 10.7246V10.3428V10.1406C71.2568 10.1257 71.2718 10.0732 71.3018 9.9834C71.3467 9.87858 71.3766 9.8112 71.3916 9.78125C71.3916 9.7513 71.4365 9.69889 71.5264 9.62402C71.6162 9.54915 71.6761 9.51172 71.7061 9.51172C71.8558 9.24219 71.9681 8.98763 72.043 8.74805C72.1178 8.50846 72.1927 8.28385 72.2676 8.07422C72.3424 7.84961 72.4473 7.63997 72.582 7.44531C72.7168 7.23568 72.9264 7.03353 73.2109 6.83887C73.2109 6.79395 73.2184 6.72656 73.2334 6.63672C73.2484 6.5319 73.2559 6.44206 73.2559 6.36719C73.2559 6.14258 73.196 5.93294 73.0762 5.73828C72.9714 5.54362 72.9189 5.31901 72.9189 5.06445V5.01953C72.9189 4.92969 72.9339 4.79492 72.9639 4.61523C73.0088 4.43555 73.0462 4.25586 73.0762 4.07617C73.1061 3.89648 73.1361 3.73926 73.166 3.60449C73.196 3.45475 73.2109 3.35742 73.2109 3.3125C73.2409 3.28255 73.2633 3.2002 73.2783 3.06543C73.3083 2.91569 73.3757 2.81087 73.4805 2.75098C73.5404 2.736 73.6826 2.69857 73.9072 2.63867C74.1318 2.5638 74.2816 2.51139 74.3564 2.48145C74.5062 2.36165 74.6484 2.2194 74.7832 2.05469C74.9329 1.88997 75.0752 1.74023 75.21 1.60547C75.3597 1.45573 75.5244 1.32845 75.7041 1.22363C75.8838 1.11882 76.1009 1.06641 76.3555 1.06641H76.6025C76.8271 1.33594 76.9919 1.61296 77.0967 1.89746C77.2165 2.16699 77.3063 2.4515 77.3662 2.75098C77.4261 3.05046 77.471 3.35742 77.501 3.67188C77.5459 3.97135 77.5983 4.28581 77.6582 4.61523C77.7031 4.63021 77.763 4.71257 77.8379 4.8623C77.9277 5.01204 77.9727 5.10189 77.9727 5.13184C78.0924 5.46126 78.1673 5.79818 78.1973 6.14258C78.2422 6.47201 78.3021 6.78646 78.377 7.08594C78.4967 7.5651 78.6315 8.03678 78.7812 8.50098C78.931 8.96517 79.0882 9.43685 79.2529 9.91602C79.4027 10.4102 79.5449 10.8594 79.6797 11.2637C79.8145 11.653 79.9492 12.1396 80.084 12.7236C80.1289 12.8883 80.1663 13.0755 80.1963 13.2852C80.2412 13.4948 80.2861 13.7119 80.3311 13.9365C80.376 14.1462 80.4209 14.3558 80.4658 14.5654C80.5107 14.7601 80.5706 14.9248 80.6455 15.0596C80.6455 15.1195 80.7054 15.2243 80.8252 15.374C80.96 15.5088 81.0423 15.5911 81.0723 15.6211C81.0723 15.651 81.0798 15.7109 81.0947 15.8008C81.1247 15.8757 81.1546 15.9655 81.1846 16.0703C81.2295 16.1602 81.2669 16.25 81.2969 16.3398C81.3268 16.4147 81.3493 16.4671 81.3643 16.4971C81.3643 16.512 81.3792 16.5645 81.4092 16.6543C81.4541 16.7292 81.499 16.8115 81.5439 16.9014C81.6038 16.9912 81.6488 17.0811 81.6787 17.1709C81.7236 17.2607 81.7461 17.3132 81.7461 17.3281C81.806 17.5078 81.8659 17.71 81.9258 17.9346C81.9857 18.1592 82.0381 18.3913 82.083 18.6309C82.1429 18.8555 82.2103 19.0801 82.2852 19.3047C82.36 19.5143 82.4574 19.694 82.5771 19.8438C82.667 19.9635 82.7868 20.0833 82.9365 20.2031C83.0863 20.3229 83.2285 20.4577 83.3633 20.6074C83.498 20.7422 83.6104 20.8919 83.7002 21.0566C83.805 21.2064 83.8574 21.3711 83.8574 21.5508V21.6631C83.8574 21.723 83.8499 21.7829 83.835 21.8428C83.82 21.9027 83.7751 21.9401 83.7002 21.9551C83.6702 21.9701 83.6178 21.985 83.543 22C83.4681 22.015 83.3857 22.0299 83.2959 22.0449C83.2061 22.0599 83.1237 22.0749 83.0488 22.0898C82.974 22.1048 82.9141 22.1123 82.8691 22.1123H80.6904H78.5342C78.4743 22.1123 78.332 22.0973 78.1074 22.0674C77.8978 22.0374 77.6657 22.0075 77.4111 21.9775C77.1566 21.9476 76.917 21.9176 76.6924 21.8877C76.4827 21.8428 76.3555 21.8203 76.3105 21.8203H75.9736C75.9736 21.446 76.0934 21.1689 76.333 20.9893C76.5726 20.7946 76.8346 20.6224 77.1191 20.4727C77.4186 20.3079 77.6882 20.1283 77.9277 19.9336C78.1823 19.724 78.3096 19.417 78.3096 19.0127C78.3096 18.9827 78.2946 18.9079 78.2646 18.7881C78.2497 18.7282 78.2422 18.6683 78.2422 18.6084C78.2422 18.5934 78.2272 18.5186 78.1973 18.3838C78.1673 18.249 78.1299 18.0993 78.085 17.9346C78.04 17.7699 77.9951 17.6051 77.9502 17.4404C77.9053 17.2757 77.8604 17.1484 77.8154 17.0586C77.7406 16.819 77.6657 16.5869 77.5908 16.3623C77.5309 16.1377 77.4411 15.9355 77.3213 15.7559C77.2015 15.5762 77.0443 15.4264 76.8496 15.3066C76.6699 15.1868 76.4378 15.1045 76.1533 15.0596H74.6035H73.0537C72.9788 15.0745 72.8665 15.097 72.7168 15.127C72.5671 15.1419 72.4098 15.1569 72.2451 15.1719C72.0954 15.1868 71.9531 15.2018 71.8184 15.2168C71.6836 15.2168 71.5938 15.2168 71.5488 15.2168C71.2943 15.2767 71.0622 15.374 70.8525 15.5088C70.6429 15.6286 70.5007 15.8158 70.4258 16.0703C70.3809 16.1751 70.3359 16.3249 70.291 16.5195C70.2461 16.7142 70.2012 16.9089 70.1562 17.1035C70.1113 17.2982 70.0739 17.4704 70.0439 17.6201C70.014 17.7699 69.999 17.8597 69.999 17.8896C69.999 17.9196 69.984 18.0469 69.9541 18.2715C69.9391 18.4811 69.9316 18.6458 69.9316 18.7656C69.9316 18.7806 69.9316 18.8255 69.9316 18.9004C69.9466 18.9753 69.9541 19.0576 69.9541 19.1475C69.9691 19.2373 69.9766 19.3271 69.9766 19.417C69.9915 19.4919 69.999 19.5443 69.999 19.5742C70.1038 19.694 70.2686 19.8213 70.4932 19.9561C70.7178 20.0908 70.9424 20.2331 71.167 20.3828C71.3916 20.5176 71.5938 20.6598 71.7734 20.8096C71.9531 20.9593 72.0579 21.1016 72.0879 21.2363C72.1029 21.3861 72.0579 21.5133 71.9531 21.6182C71.8633 21.723 71.7435 21.8128 71.5938 21.8877C71.459 21.9626 71.3092 22.015 71.1445 22.0449C70.9948 22.0898 70.8675 22.1123 70.7627 22.1123C70.598 22.1123 70.4482 22.0824 70.3135 22.0225C70.1787 21.9775 70.029 21.9551 69.8643 21.9551H69.707C69.6771 21.9551 69.6022 21.9775 69.4824 22.0225C69.3776 22.0824 69.3102 22.1123 69.2803 22.1123H68C67.985 22.1123 67.9176 22.1273 67.7979 22.1572C67.6781 22.2021 67.6107 22.2246 67.5957 22.2246H67.4385H67.2812C67.2663 22.2246 67.1839 22.2021 67.0342 22.1572C66.8994 22.1273 66.8245 22.1123 66.8096 22.1123H65.1025C64.6234 22.0524 64.3838 21.7979 64.3838 21.3486ZM71.7734 12.2295V12.2969C71.7884 12.3118 71.7959 12.3343 71.7959 12.3643C71.8109 12.3942 71.8333 12.4242 71.8633 12.4541C71.8783 12.499 71.9007 12.5365 71.9307 12.5664C72.0205 12.6413 72.1553 12.7536 72.335 12.9033C72.5146 13.0381 72.6195 13.113 72.6494 13.1279H72.9414H73.7725C73.8024 13.1279 73.8473 13.1579 73.9072 13.2178C73.9671 13.2627 74.012 13.2852 74.042 13.2852H74.8057C74.8955 13.2852 75.0303 13.2852 75.21 13.2852C75.4046 13.2702 75.5918 13.2477 75.7715 13.2178C75.9512 13.1878 76.1084 13.1354 76.2432 13.0605C76.3929 12.9707 76.4678 12.8584 76.4678 12.7236V12.5664C76.4528 12.5514 76.4303 12.514 76.4004 12.4541C76.3704 12.3792 76.333 12.3044 76.2881 12.2295C76.2581 12.1546 76.2282 12.0798 76.1982 12.0049C76.1683 11.93 76.1533 11.8776 76.1533 11.8477C76.0186 11.4583 75.8763 11.084 75.7266 10.7246C75.5918 10.3652 75.457 10.0133 75.3223 9.66895C75.2474 9.47428 75.1875 9.2946 75.1426 9.12988C75.1126 8.96517 75.0378 8.80046 74.918 8.63574C74.888 8.62077 74.8356 8.58333 74.7607 8.52344C74.6859 8.44857 74.6035 8.3737 74.5137 8.29883C74.4388 8.20898 74.3639 8.13411 74.2891 8.07422C74.2292 8.01432 74.1992 7.97689 74.1992 7.96191C74.0944 7.87207 74.027 7.77474 73.9971 7.66992C73.9671 7.5651 73.8698 7.5127 73.7051 7.5127H73.6377C73.5179 7.99186 73.3382 8.44108 73.0986 8.86035C72.859 9.27962 72.6569 9.70638 72.4922 10.1406C72.4922 10.2155 72.4697 10.3503 72.4248 10.5449C72.3949 10.7396 72.3649 10.8444 72.335 10.8594C72.32 10.9342 72.2826 11.0316 72.2227 11.1514C72.1628 11.2562 72.0954 11.376 72.0205 11.5107C71.9606 11.6305 71.9007 11.7578 71.8408 11.8926C71.7959 12.0124 71.7734 12.1247 71.7734 12.2295ZM103.825 21.5957C103.825 21.416 103.923 21.2812 104.117 21.1914C104.312 21.0866 104.469 21.0042 104.589 20.9443C104.858 20.8695 105.083 20.8021 105.263 20.7422C105.442 20.6823 105.645 20.6523 105.869 20.6523C106.019 20.6523 106.206 20.6748 106.431 20.7197C106.565 20.6598 106.678 20.555 106.768 20.4053C106.857 20.2406 106.925 20.0684 106.97 19.8887C107.03 19.709 107.075 19.5293 107.104 19.3496C107.134 19.1699 107.149 19.0127 107.149 18.8779C107.224 17.9645 107.262 17.0661 107.262 16.1826C107.262 15.2992 107.277 14.4082 107.307 13.5098C107.307 13.4648 107.314 13.3675 107.329 13.2178C107.344 13.0531 107.352 12.8883 107.352 12.7236C107.367 12.5439 107.382 12.3792 107.396 12.2295C107.411 12.0798 107.419 11.9899 107.419 11.96C107.419 11.915 107.411 11.8402 107.396 11.7354C107.382 11.6156 107.367 11.4958 107.352 11.376C107.352 11.2412 107.344 11.1214 107.329 11.0166C107.314 10.9118 107.307 10.8519 107.307 10.8369V9.24219C107.307 9.15234 107.277 9.0026 107.217 8.79297C107.157 8.58333 107.052 8.45605 106.902 8.41113C106.783 8.36621 106.633 8.41113 106.453 8.5459C106.288 8.68066 106.124 8.84538 105.959 9.04004C105.809 9.21973 105.674 9.4069 105.555 9.60156C105.435 9.78125 105.353 9.90104 105.308 9.96094C105.278 10.0208 105.203 10.1556 105.083 10.3652C104.963 10.5599 104.828 10.777 104.679 11.0166C104.544 11.2562 104.409 11.4808 104.274 11.6904C104.155 11.8851 104.072 12.0124 104.027 12.0723C103.997 12.1172 103.945 12.2145 103.87 12.3643C103.795 12.514 103.758 12.6188 103.758 12.6787C103.743 12.6937 103.69 12.7611 103.601 12.8809C103.526 13.0007 103.436 13.1354 103.331 13.2852C103.241 13.4199 103.151 13.5472 103.062 13.667C102.972 13.7868 102.912 13.8617 102.882 13.8916C102.882 13.9515 102.867 14.0938 102.837 14.3184C102.807 14.543 102.777 14.6852 102.747 14.7451C102.642 15.1045 102.463 15.4414 102.208 15.7559C101.968 16.0703 101.766 16.3997 101.602 16.7441C101.602 16.7741 101.579 16.834 101.534 16.9238C101.504 17.0137 101.467 17.1185 101.422 17.2383C101.377 17.3431 101.332 17.4479 101.287 17.5527C101.242 17.6426 101.212 17.7025 101.197 17.7324C101.182 17.7773 101.145 17.8597 101.085 17.9795C101.04 18.0843 100.988 18.2041 100.928 18.3389C100.868 18.4587 100.808 18.571 100.748 18.6758C100.703 18.7806 100.673 18.848 100.658 18.8779C100.643 18.8929 100.613 18.9603 100.568 19.0801C100.538 19.1849 100.508 19.2523 100.479 19.2822C100.464 19.402 100.419 19.5817 100.344 19.8213C100.269 20.0459 100.172 20.2855 100.052 20.54C99.9469 20.7796 99.8197 20.9893 99.6699 21.1689C99.5352 21.3486 99.3854 21.4385 99.2207 21.4385C99.1309 21.4385 99.026 21.3786 98.9062 21.2588C98.7865 21.124 98.7041 21.0192 98.6592 20.9443C98.6292 20.9144 98.6068 20.8844 98.5918 20.8545C98.5618 20.7946 98.5469 20.7497 98.5469 20.7197C98.2923 20.1357 98.0527 19.5443 97.8281 18.9453C97.6185 18.3314 97.3789 17.7399 97.1094 17.1709C97.0944 17.141 97.042 17.0736 96.9521 16.9688C96.8623 16.849 96.8174 16.7741 96.8174 16.7441C96.8024 16.7142 96.7725 16.6618 96.7275 16.5869C96.6826 16.4971 96.6377 16.4072 96.5928 16.3174C96.5479 16.2275 96.5029 16.1452 96.458 16.0703C96.4281 15.9954 96.4056 15.9505 96.3906 15.9355C96.166 15.3815 95.9489 14.82 95.7393 14.251C95.5446 13.682 95.29 13.1579 94.9756 12.6787C94.736 12.2894 94.4889 11.9076 94.2344 11.5332C93.9948 11.1439 93.7702 10.762 93.5605 10.3877C93.5456 10.3727 93.5081 10.3128 93.4482 10.208C93.4033 10.1032 93.3509 9.9834 93.291 9.84863C93.2311 9.71387 93.1712 9.5791 93.1113 9.44434C93.0514 9.2946 93.014 9.1748 92.999 9.08496C92.984 9.06999 92.9616 9.01009 92.9316 8.90527C92.9017 8.78548 92.8792 8.71061 92.8643 8.68066C92.8643 8.65072 92.8418 8.60579 92.7969 8.5459C92.7669 8.486 92.737 8.44108 92.707 8.41113C92.6621 8.33626 92.6097 8.25391 92.5498 8.16406C92.4899 8.05924 92.43 7.96191 92.3701 7.87207C92.3102 7.76725 92.2428 7.66243 92.168 7.55762H91.7188C91.6888 7.66243 91.6663 7.76725 91.6514 7.87207C91.6214 7.96191 91.599 8.05924 91.584 8.16406C91.584 8.25391 91.5765 8.33626 91.5615 8.41113C91.4417 9.47428 91.3594 10.5449 91.3145 11.623C91.2845 12.6862 91.2695 13.7568 91.2695 14.835V16.2725V19.8438C91.3145 19.9186 91.3669 20.0085 91.4268 20.1133C91.4867 20.2031 91.554 20.293 91.6289 20.3828C91.7188 20.4727 91.8086 20.555 91.8984 20.6299C91.9883 20.6898 92.0781 20.7197 92.168 20.7197H93.7178C93.9124 20.7197 94.0996 20.8021 94.2793 20.9668C94.459 21.1315 94.5488 21.3112 94.5488 21.5059V21.6631C94.5189 21.723 94.4515 21.7979 94.3467 21.8877C94.2419 21.9626 94.1745 22 94.1445 22H91.2695C91.1348 22.0749 91.0299 22.1198 90.9551 22.1348C90.8952 22.1497 90.7829 22.1572 90.6182 22.1572H90.2812C90.1615 22.1423 89.9518 22.1198 89.6523 22.0898C89.3529 22.0749 89.0309 22.0599 88.6865 22.0449C88.3421 22.0299 88.0127 22.015 87.6982 22C87.3988 22 87.1966 22 87.0918 22C87.0169 21.9701 86.9046 21.9027 86.7549 21.7979C86.6201 21.693 86.5378 21.6257 86.5078 21.5957L86.373 21.4385C86.388 21.3936 86.4255 21.3411 86.4854 21.2812C86.5452 21.2064 86.6126 21.1315 86.6875 21.0566C86.7773 20.9818 86.8522 20.9144 86.9121 20.8545C86.987 20.7946 87.0469 20.7497 87.0918 20.7197C87.1068 20.6898 87.1367 20.6598 87.1816 20.6299C87.2415 20.585 87.2865 20.5625 87.3164 20.5625C87.3464 20.5475 87.4212 20.54 87.541 20.54C87.6608 20.5251 87.7806 20.5101 87.9004 20.4951C88.0352 20.4801 88.1549 20.4727 88.2598 20.4727C88.3796 20.4577 88.4544 20.4502 88.4844 20.4502C88.5742 20.4053 88.6715 20.3604 88.7764 20.3154C88.8962 20.2555 89.0085 20.1956 89.1133 20.1357C89.2331 20.0609 89.3304 19.9785 89.4053 19.8887C89.4951 19.7988 89.5475 19.694 89.5625 19.5742C89.6074 19.4694 89.6523 19.3197 89.6973 19.125C89.7422 18.9154 89.7871 18.7057 89.832 18.4961C89.8919 18.2715 89.9368 18.0768 89.9668 17.9121C90.0117 17.7324 90.0417 17.6201 90.0566 17.5752C90.0566 17.5153 90.0492 17.3581 90.0342 17.1035C90.0342 16.849 90.0342 16.6094 90.0342 16.3848C90.0342 16.265 90.0342 16.1676 90.0342 16.0928C90.0342 16.0029 90.0417 15.9505 90.0566 15.9355C90.0566 15.8757 90.0641 15.7633 90.0791 15.5986C90.109 15.4189 90.1315 15.2393 90.1465 15.0596C90.1764 14.8799 90.2064 14.7152 90.2363 14.5654C90.2663 14.4007 90.2812 14.2884 90.2812 14.2285V8.97266C90.3561 8.82292 90.4085 8.70312 90.4385 8.61328C90.4684 8.52344 90.4834 8.43359 90.4834 8.34375C90.4834 8.26888 90.4759 8.18652 90.4609 8.09668C90.446 8.00684 90.4385 7.90202 90.4385 7.78223V7.55762C90.4385 7.5127 90.4609 7.40039 90.5059 7.2207C90.5658 7.02604 90.6032 6.89876 90.6182 6.83887V5.80566V5.40137C90.6182 5.37142 90.6331 5.28906 90.6631 5.1543C90.708 5.00456 90.7454 4.89974 90.7754 4.83984V4.79492C90.7754 4.45052 90.6855 4.16602 90.5059 3.94141C90.3262 3.70182 90.1016 3.49967 89.832 3.33496C89.5775 3.15527 89.293 3.00553 88.9785 2.88574C88.679 2.75098 88.3945 2.6237 88.125 2.50391C87.8704 2.38411 87.6533 2.25684 87.4736 2.12207C87.2939 1.97233 87.2041 1.79264 87.2041 1.58301C87.2041 1.41829 87.2865 1.31348 87.4512 1.26855C87.6309 1.22363 87.7806 1.20117 87.9004 1.20117H92.4375C92.8268 1.20117 93.2236 1.26855 93.6279 1.40332C94.0322 1.53809 94.3392 1.80013 94.5488 2.18945C94.5638 2.2194 94.5863 2.29427 94.6162 2.41406C94.6611 2.53385 94.7061 2.66862 94.751 2.81836C94.8109 2.95312 94.8558 3.08789 94.8857 3.22266C94.9307 3.34245 94.9606 3.4248 94.9756 3.46973C95.1403 3.94889 95.3799 4.41309 95.6943 4.8623C96.0088 5.31152 96.2933 5.77572 96.5479 6.25488C96.8473 6.86882 97.0869 7.50521 97.2666 8.16406C97.4613 8.82292 97.6859 9.47428 97.9404 10.1182C97.9554 10.1331 97.9928 10.193 98.0527 10.2979C98.1126 10.4027 98.1725 10.5225 98.2324 10.6572C98.3073 10.777 98.3747 10.8968 98.4346 11.0166C98.4945 11.1214 98.5319 11.1963 98.5469 11.2412C98.6667 11.5257 98.7715 11.8477 98.8613 12.207C98.9512 12.5664 99.071 12.8883 99.2207 13.1729C99.2207 13.2327 99.2806 13.3451 99.4004 13.5098C99.5352 13.6595 99.6175 13.7493 99.6475 13.7793C99.7074 13.8542 99.7822 13.9814 99.8721 14.1611C99.9619 14.3258 100.059 14.498 100.164 14.6777C100.269 14.8574 100.374 15.0146 100.479 15.1494C100.598 15.2842 100.711 15.3441 100.815 15.3291C100.845 15.2842 100.875 15.2467 100.905 15.2168C100.935 15.1868 100.958 15.1644 100.973 15.1494C101.003 15.1344 101.025 15.1195 101.04 15.1045C101.25 14.805 101.407 14.4831 101.512 14.1387C101.617 13.7943 101.751 13.4723 101.916 13.1729C102.066 12.9632 102.208 12.7461 102.343 12.5215C102.493 12.2819 102.627 12.0348 102.747 11.7803C102.837 11.6156 102.904 11.4059 102.949 11.1514C103.009 10.8968 103.091 10.6872 103.196 10.5225C103.211 10.5075 103.249 10.4626 103.309 10.3877C103.383 10.2979 103.458 10.208 103.533 10.1182C103.608 10.0283 103.683 9.94596 103.758 9.87109C103.833 9.78125 103.885 9.72135 103.915 9.69141C103.915 9.66146 103.923 9.60156 103.938 9.51172C103.967 9.4069 103.997 9.31706 104.027 9.24219C104.162 8.76302 104.334 8.30632 104.544 7.87207C104.769 7.43783 105.001 7.01107 105.24 6.5918C105.495 6.17253 105.749 5.75326 106.004 5.33398C106.258 4.91471 106.491 4.47298 106.7 4.00879C106.82 3.76921 106.895 3.5446 106.925 3.33496C106.97 3.11035 107.015 2.9082 107.06 2.72852C107.119 2.53385 107.202 2.34668 107.307 2.16699C107.411 1.97233 107.599 1.77767 107.868 1.58301C108.362 1.52311 108.871 1.48568 109.396 1.4707C109.92 1.44076 110.444 1.42578 110.968 1.42578C111.222 1.42578 111.477 1.43327 111.731 1.44824C112.001 1.46322 112.263 1.4707 112.518 1.4707L112.81 1.31348L113.798 1.58301C113.813 1.62793 113.835 1.67285 113.865 1.71777C113.88 1.74772 113.895 1.78516 113.91 1.83008C113.925 1.86003 113.94 1.88997 113.955 1.91992V1.96484C113.955 2.26432 113.873 2.50391 113.708 2.68359C113.543 2.86328 113.341 3.02051 113.102 3.15527C112.862 3.27507 112.607 3.38737 112.338 3.49219C112.083 3.59701 111.866 3.7168 111.687 3.85156C111.657 3.86654 111.634 3.88151 111.619 3.89648C111.619 3.91146 111.612 3.92643 111.597 3.94141C111.582 3.97135 111.574 3.99382 111.574 4.00879C111.559 4.02376 111.544 4.06868 111.529 4.14355C111.514 4.20345 111.499 4.27832 111.484 4.36816C111.469 4.44303 111.454 4.5179 111.439 4.59277C111.424 4.66764 111.417 4.71257 111.417 4.72754C111.402 4.77246 111.38 4.84733 111.35 4.95215C111.32 5.05697 111.29 5.16927 111.26 5.28906C111.23 5.40885 111.192 5.52116 111.147 5.62598C111.118 5.73079 111.095 5.80566 111.08 5.85059C111.11 6.26986 111.125 6.66667 111.125 7.04102C111.125 7.41536 111.125 7.77474 111.125 8.11914C111.125 8.6582 111.11 9.19727 111.08 9.73633C111.065 10.2754 111.028 10.8669 110.968 11.5107C110.968 11.5407 110.96 11.6156 110.945 11.7354C110.93 11.8402 110.915 11.96 110.9 12.0947C110.9 12.2145 110.893 12.3343 110.878 12.4541C110.863 12.5589 110.855 12.6338 110.855 12.6787V12.7236V12.791C110.855 12.821 110.87 12.9108 110.9 13.0605C110.945 13.2103 110.968 13.3001 110.968 13.3301V13.4424C110.968 14.236 110.945 15.0296 110.9 15.8232C110.87 16.6169 110.855 17.418 110.855 18.2266V20.2705C110.9 20.5101 111.028 20.6598 111.237 20.7197C111.327 20.7497 111.469 20.8021 111.664 20.877C111.859 20.9368 112.068 21.0042 112.293 21.0791C112.518 21.154 112.727 21.2288 112.922 21.3037C113.132 21.3636 113.281 21.4085 113.371 21.4385C113.446 21.4535 113.498 21.4909 113.528 21.5508C113.558 21.5957 113.573 21.6331 113.573 21.6631C113.573 21.8128 113.521 21.9251 113.416 22C113.326 22.0898 113.214 22.1497 113.079 22.1797C112.944 22.2246 112.802 22.2471 112.652 22.2471C112.518 22.262 112.405 22.2695 112.315 22.2695C111.926 22.2695 111.522 22.2471 111.103 22.2021C110.683 22.1722 110.264 22.1572 109.845 22.1572H109.53C109.5 22.1572 109.388 22.1722 109.193 22.2021C108.999 22.2471 108.871 22.2695 108.812 22.2695C108.797 22.2695 108.737 22.262 108.632 22.2471C108.527 22.2321 108.407 22.2171 108.272 22.2021C108.153 22.2021 108.033 22.1947 107.913 22.1797C107.808 22.1647 107.741 22.1572 107.711 22.1572H105.6C105.555 22.1572 105.472 22.1497 105.353 22.1348C105.233 22.1198 105.105 22.0973 104.971 22.0674C104.836 22.0524 104.701 22.0374 104.566 22.0225C104.447 22.0075 104.364 22 104.319 22C104.2 21.9701 104.087 21.9176 103.982 21.8428C103.878 21.7679 103.825 21.6855 103.825 21.5957Z" fill="black"/>
</svg>
